<?xml version="1.0" encoding="UTF-8"?><svg id="Layer_2" xmlns="http://www.w3.org/2000/svg" xmlns:xlink="http://www.w3.org/1999/xlink" viewBox="0 0 943.9 683.47"><defs><style>.cls-1{letter-spacing:0em;}.cls-2{fill:url(#linear-gradient);}.cls-3{font-family:SourceSansPro-Regular, 'Source Sans Pro';font-size:24.21px;}.cls-3,.cls-4{fill:#eb1f2a;}.cls-5,.cls-6{fill:#283b8a;}.cls-7{fill:#283a87;}.cls-6{font-family:SourceSansPro-Semibold, 'Source Sans Pro';font-size:33.06px;font-weight:700;}.cls-8{letter-spacing:-.01em;}.cls-9{letter-spacing:-.01em;}.cls-10{fill:url(#linear-gradient-3);}.cls-11{fill:url(#linear-gradient-2);}.cls-12{letter-spacing:-.03em;}.cls-13{letter-spacing:0em;}</style><linearGradient id="linear-gradient" x1="214.35" y1="230.99" x2="732.68" y2="230.99" gradientTransform="matrix(1, 0, 0, 1, 0, 0)" gradientUnits="userSpaceOnUse"><stop offset="0" stop-color="#283a87"/><stop offset=".34" stop-color="#273984"/><stop offset=".52" stop-color="#27377c"/><stop offset=".66" stop-color="#26336f"/><stop offset=".78" stop-color="#252e5c"/><stop offset=".89" stop-color="#242843"/><stop offset=".98" stop-color="#232025"/><stop offset="1" stop-color="#231f20"/></linearGradient><linearGradient id="linear-gradient-2" x1="597.72" y1="344.19" x2="743.4" y2="344.19" gradientTransform="matrix(1, 0, 0, 1, 0, 0)" gradientUnits="userSpaceOnUse"><stop offset="0" stop-color="#283a87"/><stop offset=".42" stop-color="#273985"/><stop offset=".58" stop-color="#25367e"/><stop offset=".68" stop-color="#213172"/><stop offset=".77" stop-color="#1c2961"/><stop offset=".85" stop-color="#16204b"/><stop offset=".91" stop-color="#0e1430"/><stop offset=".97" stop-color="#050710"/><stop offset="1" stop-color="#000"/></linearGradient><linearGradient id="linear-gradient-3" x1="740.97" y1="340.93" x2="839.07" y2="340.93" gradientTransform="matrix(1, 0, 0, 1, 0, 0)" gradientUnits="userSpaceOnUse"><stop offset="0" stop-color="#eb1f2a"/><stop offset=".33" stop-color="#e81e29"/><stop offset=".54" stop-color="#df1e29"/><stop offset=".72" stop-color="#d01d27"/><stop offset=".88" stop-color="#bb1c25"/><stop offset="1" stop-color="#a61c24"/></linearGradient></defs><g id="Layer_1-2"><g id="Design_2"><g><path class="cls-7" d="M65.61,594.8l11.62,3.57c-2.57,11.96-7.06,20.88-13.48,26.76-6.41,5.9-14.22,8.83-23.43,8.83-8.09,0-15-1.97-20.74-5.93-5.74-3.95-10.44-10.29-14.1-19.01-3.66-8.72-5.49-19.02-5.49-30.9s1.83-21.65,5.49-29.77c3.66-8.12,8.62-14.25,14.87-18.4,6.25-4.14,13.24-6.21,20.94-6.21,8.43,0,15.69,2.62,21.74,7.87,6.06,5.23,10.31,12.93,12.73,23.08l-11.33,3.27c-3.88-14.77-11.67-22.16-23.35-22.16-5.83,0-10.87,1.49-15.14,4.47-4.27,2.98-7.68,7.63-10.22,13.92-2.54,6.31-3.82,14.29-3.82,23.93,0,14.6,2.57,25.54,7.7,32.83,5.13,7.3,11.96,10.94,20.49,10.94,6.29,0,11.73-2.24,16.31-6.72s7.64-11.27,9.19-20.38Z"/><path class="cls-7" d="M88.42,580.27c0-18.16,4-32.12,11.99-41.87,7.99-9.77,17.95-14.64,29.86-14.64,7.7,0,14.72,2.18,21.07,6.53,6.34,4.37,11.37,10.69,15.08,18.99,3.71,8.31,5.56,18.2,5.56,29.68,0,15.79-3.59,28.65-10.75,38.59-7.9,10.94-18.24,16.42-31.02,16.42s-23.25-5.61-31.1-16.85c-7.12-10.18-10.68-22.45-10.68-36.84Zm11.92,.18c0,13.14,2.89,23.33,8.68,30.58,5.79,7.26,12.83,10.87,21.11,10.87s15.59-3.66,21.33-10.97c5.74-7.33,8.61-18.09,8.61-32.29,0-9.16-1.48-17.35-4.43-24.58-2.28-5.53-5.71-9.95-10.28-13.27s-9.58-4.98-15-4.98c-8.72,0-15.9,3.63-21.54,10.9-5.64,7.27-8.46,18.51-8.46,33.74Z"/><path class="cls-7" d="M186.58,632.15v-106.51h38.73c8.09,0,14.06,.99,17.91,2.98,3.85,1.98,7.01,5.29,9.48,9.91,2.47,4.62,3.71,9.99,3.71,16.09,0,8.04-2.1,14.54-6.29,19.53-4.19,4.98-10.28,8.15-18.27,9.51,3.25,1.94,5.71,3.93,7.41,5.91,3.44,4.07,6.47,8.6,9.09,13.59l15.25,28.99h-14.53l-11.65-22.14c-4.51-8.68-7.92-14.5-10.22-17.52-2.3-3.01-4.52-5.03-6.68-6.07-2.15-1.05-5.16-1.57-9.04-1.57h-13.35v47.3h-11.55Zm11.55-59.51h24.85c5.42,0,9.54-.65,12.35-1.96,2.81-1.3,5.03-3.37,6.68-6.18,1.64-2.81,2.47-6.08,2.47-9.81,0-5.37-1.57-9.6-4.72-12.67s-7.82-4.62-14.02-4.62h-27.61v35.24Z"/><path class="cls-7" d="M274.34,632.15v-106.51h11.84l45.92,83.79v-83.79h11.06v106.51h-11.85l-45.85-83.8v83.8h-11.12Z"/><path class="cls-7" d="M363,632.15v-106.51h63.14v12.57h-51.58v32.55h48.31v12.57h-48.31v36.25h53.61v12.57h-65.16Z"/><path class="cls-7" d="M444.08,632.15v-106.51h38.73c8.09,0,14.06,.99,17.92,2.98,3.84,1.98,7,5.29,9.47,9.91,2.48,4.62,3.71,9.99,3.71,16.09,0,8.04-2.1,14.54-6.29,19.53-4.18,4.98-10.28,8.15-18.27,9.51,3.25,1.94,5.73,3.93,7.41,5.91,3.44,4.07,6.46,8.6,9.09,13.59l15.25,28.99h-14.53l-11.65-22.14c-4.51-8.68-7.91-14.5-10.21-17.52-2.3-3.01-4.52-5.03-6.68-6.07-2.15-1.05-5.17-1.57-9.04-1.57h-13.35v47.3h-11.55Zm11.55-59.51h24.85c5.43,0,9.54-.65,12.35-1.96,2.82-1.3,5.05-3.37,6.69-6.18,1.64-2.81,2.47-6.08,2.47-9.81,0-5.37-1.57-9.6-4.72-12.67s-7.82-4.62-14.02-4.62h-27.61v35.24Z"/><path class="cls-7" d="M528.29,597.86l10.89-1.16c.58,5.85,1.9,10.42,3.97,13.69,2.06,3.27,4.99,5.9,8.82,7.88,3.83,1.98,8.15,2.98,12.94,2.98,6.88,0,12.22-1.67,16.02-5.03,3.8-3.36,5.7-7.73,5.7-13.08,0-3.15-.68-5.9-2.07-8.24-1.38-2.34-3.46-4.27-6.25-5.77-2.78-1.49-8.8-3.61-18.05-6.35-8.24-2.44-14.1-4.9-17.59-7.37s-6.19-5.6-8.14-9.41c-1.93-3.8-2.91-8.09-2.91-12.9,0-8.62,2.79-15.66,8.36-21.14,5.57-5.47,13.07-8.21,22.52-8.21,6.49,0,12.16,1.28,17.04,3.84,4.86,2.58,8.65,6.25,11.33,11.04,2.69,4.81,4.13,10.45,4.32,16.94l-11.11,1.01c-.58-6.92-2.65-12.05-6.21-15.39-3.56-3.35-8.56-5.02-15.01-5.02s-11.52,1.47-14.97,4.39c-3.43,2.93-5.15,6.72-5.15,11.37,0,4.31,1.25,7.65,3.77,10.04,2.52,2.37,8.18,4.78,17,7.2,8.62,2.38,14.67,4.45,18.16,6.21,5.33,2.72,9.34,6.29,12.06,10.73,2.72,4.42,4.08,9.71,4.08,15.85s-1.43,11.65-4.3,16.66c-2.85,5.02-6.75,8.82-11.65,11.44-4.92,2.61-10.84,3.91-17.78,3.91-10.8,0-19.41-3.25-25.83-9.74-6.42-6.49-9.74-15.28-9.98-26.37Z"/><path class="cls-7" d="M635.97,632.15v-93.94h-28.78v-12.57h69.25v12.57h-28.92v93.94h-11.55Z"/><path class="cls-7" d="M682.76,580.27c0-18.16,4-32.12,11.98-41.87,7.99-9.77,17.95-14.64,29.87-14.64,7.7,0,14.73,2.18,21.06,6.53,6.35,4.37,11.37,10.69,15.08,18.99,3.7,8.31,5.56,18.2,5.56,29.68,0,15.79-3.59,28.65-10.76,38.59-7.9,10.94-18.23,16.42-31.02,16.42s-23.25-5.61-31.1-16.85c-7.12-10.18-10.67-22.45-10.67-36.84Zm11.91,.18c0,13.14,2.89,23.33,8.69,30.58,5.78,7.26,12.81,10.87,21.11,10.87s15.58-3.66,21.32-10.97c5.74-7.33,8.6-18.09,8.6-32.29,0-9.16-1.47-17.35-4.42-24.58-2.28-5.53-5.71-9.95-10.28-13.27-4.58-3.32-9.58-4.98-15.01-4.98-8.72,0-15.9,3.63-21.55,10.9-5.64,7.27-8.46,18.51-8.46,33.74Z"/><path class="cls-7" d="M780.63,632.15v-106.51h11.84l45.91,83.79v-83.79h11.06v106.51h-11.85l-45.84-83.8v83.8h-11.11Z"/><path class="cls-7" d="M869.27,632.15v-106.51h63.14v12.57h-51.58v32.55h48.31v12.57h-48.31v36.25h53.61v12.57h-65.16Z"/></g><g><path class="cls-7" d="M3.11,682.91v-32.12h3.48v32.12H3.11Z"/><path class="cls-7" d="M12.57,682.91v-32.12h3.57l13.86,25.27v-25.27h3.32v32.12h-3.57l-13.83-25.27v25.27h-3.36Z"/><path class="cls-7" d="M45.99,682.91v-28.34h-8.68v-3.78h20.88v3.78h-8.72v28.34h-3.49Z"/><path class="cls-7" d="M61.79,682.91v-32.12h19.04v3.78h-15.56v9.82h14.57v3.78h-14.57v10.94h16.17v3.78h-19.66Z"/><path class="cls-7" d="M86.25,682.91v-32.12h11.68c2.44,0,4.24,.3,5.4,.89,1.16,.6,2.11,1.6,2.86,2.99,.75,1.39,1.12,3.01,1.12,4.85,0,2.42-.63,4.39-1.89,5.9-1.27,1.5-3.1,2.45-5.51,2.86,.98,.6,1.72,1.19,2.23,1.79,1.04,1.23,1.96,2.59,2.74,4.1l4.6,8.75h-4.38l-3.52-6.68c-1.36-2.62-2.39-4.38-3.08-5.29-.69-.91-1.36-1.52-2.01-1.83-.64-.31-1.56-.47-2.72-.47h-4.03v14.26h-3.48Zm3.48-17.95h7.5c1.64,0,2.88-.2,3.73-.6,.84-.4,1.52-1.01,2.01-1.86,.5-.85,.74-1.84,.74-2.96,0-1.62-.47-2.89-1.42-3.83-.95-.92-2.36-1.39-4.23-1.39h-8.33v10.63Z"/><path class="cls-7" d="M112.72,682.91v-32.12h3.57l13.86,25.27v-25.27h3.32v32.12h-3.57l-13.83-25.27v25.27h-3.36Z"/><path class="cls-7" d="M136.49,682.91l10.16-32.12h3.73l10.79,32.12h-3.98l-3.07-9.72h-11.09l-2.86,9.72h-3.67Zm7.56-13.2h8.97l-2.74-8.89c-.84-2.74-1.47-4.96-1.86-6.66-.34,2.06-.82,4.1-1.44,6.14l-2.93,9.41Z"/><path class="cls-7" d="M167.98,682.91v-28.34h-8.68v-3.78h20.88v3.78h-8.72v28.34h-3.49Z"/><path class="cls-7" d="M184.38,682.91v-32.12h3.48v32.12h-3.48Z"/><path class="cls-7" d="M192.97,667.26c0-5.47,1.2-9.68,3.61-12.63,2.41-2.95,5.41-4.42,9.01-4.42,2.32,0,4.44,.67,6.35,1.98,1.91,1.3,3.43,3.22,4.55,5.73,1.12,2.51,1.67,5.49,1.67,8.94,0,4.76-1.08,8.65-3.24,11.64-2.38,3.3-5.5,4.96-9.36,4.96s-7.02-1.7-9.38-5.09c-2.15-3.06-3.22-6.78-3.22-11.11Zm3.59,.06c0,3.97,.87,7.05,2.62,9.23,1.75,2.18,3.87,3.27,6.37,3.27s4.7-1.11,6.43-3.32c1.73-2.2,2.59-5.44,2.59-9.74,0-2.76-.44-5.23-1.33-7.41-.69-1.66-1.72-2.99-3.1-4-1.38-1.01-2.88-1.5-4.52-1.5-2.63,0-4.8,1.09-6.5,3.29s-2.55,5.59-2.55,10.18Z"/><path class="cls-7" d="M222.48,682.91v-32.12h3.57l13.86,25.27v-25.27h3.32v32.12h-3.57l-13.83-25.27v25.27h-3.36Z"/><path class="cls-7" d="M246.26,682.91l10.16-32.12h3.73l10.79,32.12h-3.98l-3.07-9.72h-11.09l-2.86,9.72h-3.67Zm7.56-13.2h8.97l-2.74-8.89c-.84-2.74-1.47-4.96-1.86-6.66-.34,2.06-.82,4.1-1.44,6.14l-2.93,9.41Z"/><path class="cls-7" d="M273.48,682.91v-32.12h3.49v28.34h12.97v3.78h-16.46Z"/><path class="cls-7" d="M321.75,671.65l3.51,1.08c-.77,3.61-2.13,6.31-4.07,8.08-1.93,1.77-4.29,2.66-7.07,2.66-2.44,0-4.52-.6-6.25-1.79-1.74-1.19-3.15-3.1-4.25-5.74-1.11-2.64-1.66-5.74-1.66-9.31s.55-6.53,1.66-8.99c1.11-2.45,2.6-4.3,4.49-5.54s3.99-1.89,6.32-1.89c2.54,0,4.73,.79,6.56,2.38,1.82,1.57,3.1,3.9,3.83,6.96l-3.42,.99c-1.17-4.47-3.52-6.69-7.05-6.69-1.76,0-3.27,.45-4.56,1.35-1.29,.91-2.32,2.3-3.08,4.21-.77,1.9-1.16,4.3-1.16,7.22,0,4.39,.78,7.7,2.32,9.89,1.55,2.2,3.61,3.3,6.18,3.3,1.9,0,3.54-.68,4.92-2.03,1.38-1.35,2.3-3.4,2.77-6.15Z"/><path class="cls-7" d="M328.65,667.26c0-5.47,1.2-9.68,3.61-12.63,2.42-2.95,5.41-4.42,9.02-4.42,2.32,0,4.44,.67,6.35,1.98,1.91,1.3,3.43,3.22,4.55,5.73s1.67,5.49,1.67,8.94c0,4.76-1.08,8.65-3.25,11.64-2.38,3.3-5.5,4.96-9.36,4.96s-7-1.7-9.37-5.09c-2.15-3.06-3.23-6.78-3.23-11.11Zm3.6,.06c0,3.97,.88,7.05,2.62,9.23,1.74,2.18,3.87,3.27,6.36,3.27s4.69-1.11,6.44-3.32c1.73-2.2,2.59-5.44,2.59-9.74,0-2.76-.45-5.23-1.35-7.41-.68-1.66-1.72-2.99-3.09-4-1.39-1.01-2.89-1.5-4.54-1.5-2.62,0-4.79,1.09-6.49,3.29s-2.55,5.59-2.55,10.18Z"/><path class="cls-7" d="M358.18,682.91v-32.12h5.24l6.25,22.74,1.25,4.76c.31-1.19,.78-2.91,1.4-5.15l6.32-22.35h4.69v32.12h-3.36v-26.86l-7.67,26.86h-3.13l-7.64-27.33v27.33h-3.36Z"/><path class="cls-7" d="M388.84,682.91v-32.12h5.24l6.25,22.74,1.25,4.76c.31-1.19,.78-2.91,1.4-5.15l6.32-22.35h4.69v32.12h-3.36v-26.86l-7.67,26.86h-3.13l-7.64-27.33v27.33h-3.36Z"/><path class="cls-7" d="M436.82,650.79h3.47v18.56c0,3.12-.3,5.67-.91,7.65-.6,2-1.7,3.57-3.3,4.73-1.6,1.15-3.63,1.73-6.1,1.73-3.47,0-6.08-1.05-7.81-3.12-1.73-2.07-2.59-5.74-2.59-11v-18.56h3.49v18.54c0,2.91,.23,5,.68,6.31,.45,1.29,1.19,2.28,2.23,2.96,1.03,.68,2.28,1.02,3.76,1.02,2.48,0,4.28-.69,5.4-2.1,1.12-1.4,1.69-4.14,1.69-8.19v-18.54Z"/><path class="cls-7" d="M446.06,682.91v-32.12h3.57l13.85,25.27v-25.27h3.33v32.12h-3.57l-13.82-25.27v25.27h-3.36Z"/><path class="cls-7" d="M473.39,682.91v-32.12h3.49v32.12h-3.49Z"/><path class="cls-7" d="M489.72,682.91v-28.34h-8.68v-3.78h20.88v3.78h-8.72v28.34h-3.49Z"/><path class="cls-7" d="M512.86,682.91v-13.61l-10.14-18.51h4.25l5.17,9.7c1.02,1.91,1.93,3.73,2.69,5.43,.78-1.67,1.74-3.57,2.88-5.67l5.12-9.45h4.03l-10.52,18.51v13.61h-3.49Z"/><path class="cls-7" d="M558.29,671.65l3.5,1.08c-.78,3.61-2.13,6.31-4.07,8.08-1.93,1.77-4.3,2.66-7.06,2.66-2.44,0-4.54-.6-6.27-1.79-1.73-1.19-3.15-3.1-4.25-5.74-1.09-2.64-1.64-5.74-1.64-9.31s.55-6.53,1.64-8.99c1.11-2.45,2.61-4.3,4.49-5.54s4-1.89,6.32-1.89c2.54,0,4.72,.79,6.55,2.38,1.83,1.57,3.1,3.9,3.84,6.96l-3.42,.99c-1.18-4.47-3.52-6.69-7.05-6.69-1.76,0-3.27,.45-4.56,1.35-1.29,.91-2.31,2.3-3.09,4.21-.77,1.9-1.15,4.3-1.15,7.22,0,4.39,.78,7.7,2.32,9.89s3.61,3.3,6.18,3.3c1.9,0,3.54-.68,4.92-2.03s2.31-3.4,2.78-6.15Z"/><path class="cls-7" d="M565.16,667.26c0-5.47,1.2-9.68,3.61-12.63,2.42-2.95,5.41-4.42,9.02-4.42,2.32,0,4.44,.67,6.35,1.98,1.91,1.3,3.43,3.22,4.55,5.73,1.12,2.51,1.67,5.49,1.67,8.94,0,4.76-1.08,8.65-3.25,11.64-2.38,3.3-5.5,4.96-9.36,4.96s-7-1.7-9.37-5.09c-2.15-3.06-3.23-6.78-3.23-11.11Zm3.6,.06c0,3.97,.88,7.05,2.62,9.23,1.74,2.18,3.87,3.27,6.36,3.27s4.69-1.11,6.44-3.32c1.73-2.2,2.59-5.44,2.59-9.74,0-2.76-.45-5.23-1.35-7.41-.68-1.66-1.72-2.99-3.09-4-1.39-1.01-2.89-1.5-4.54-1.5-2.62,0-4.79,1.09-6.49,3.29s-2.55,5.59-2.55,10.18Z"/><path class="cls-7" d="M594.59,682.91v-32.12h3.47v28.34h12.98v3.78h-16.46Z"/><path class="cls-7" d="M615.06,682.91v-32.12h3.47v28.34h12.98v3.78h-16.46Z"/><path class="cls-7" d="M635.81,682.91v-32.12h19.04v3.78h-15.56v9.82h14.57v3.78h-14.57v10.94h16.17v3.78h-19.65Z"/><path class="cls-7" d="M672.68,670.31v-3.78l11.16-.03v11.95c-1.72,1.66-3.47,2.92-5.3,3.76s-3.71,1.26-5.64,1.26c-2.57,0-4.86-.65-6.88-1.93-2.01-1.29-3.61-3.18-4.79-5.64-1.18-2.47-1.76-5.44-1.76-8.9s.6-6.56,1.77-9.17c1.18-2.59,2.74-4.52,4.65-5.76,1.91-1.23,4.17-1.86,6.79-1.86,1.93,0,3.61,.37,5.06,1.08,1.45,.72,2.64,1.73,3.57,3.05,.94,1.32,1.63,3.12,2.1,5.41l-3.13,1.05c-.41-1.81-.95-3.16-1.59-4.07-.65-.89-1.5-1.6-2.55-2.11s-2.23-.77-3.54-.77c-1.91,0-3.56,.47-4.95,1.39-1.38,.94-2.49,2.38-3.33,4.34-.84,1.96-1.26,4.35-1.26,7.17,0,4.3,.91,7.51,2.69,9.65,1.8,2.15,4.14,3.22,7.02,3.22,1.38,0,2.78-.33,4.22-.98,1.43-.67,2.58-1.45,3.43-2.35v-5.98h-7.74Z"/><path class="cls-7" d="M689,682.91v-32.12h19.04v3.78h-15.56v9.82h14.57v3.78h-14.57v10.94h16.17v3.78h-19.65Z"/><path class="cls-7" d="M722.71,667.26c0-5.47,1.2-9.68,3.61-12.63,2.42-2.95,5.41-4.42,9.02-4.42,2.32,0,4.44,.67,6.35,1.98,1.91,1.3,3.43,3.22,4.55,5.73,1.12,2.51,1.67,5.49,1.67,8.94,0,4.76-1.08,8.65-3.25,11.64-2.38,3.3-5.5,4.96-9.36,4.96s-7-1.7-9.37-5.09c-2.15-3.06-3.23-6.78-3.23-11.11Zm3.6,.06c0,3.97,.88,7.05,2.62,9.23,1.74,2.18,3.87,3.27,6.36,3.27s4.69-1.11,6.44-3.32c1.73-2.2,2.59-5.44,2.59-9.74,0-2.76-.45-5.23-1.35-7.41-.68-1.66-1.72-2.99-3.09-4-1.39-1.01-2.89-1.5-4.54-1.5-2.62,0-4.79,1.09-6.49,3.29s-2.55,5.59-2.55,10.18Z"/><path class="cls-7" d="M752.59,682.91v-32.12h17.78v3.78h-14.29v9.95h12.36v3.78h-12.36v14.6h-3.49Z"/><path class="cls-7" d="M803.76,671.65l3.5,1.08c-.78,3.61-2.13,6.31-4.07,8.08-1.93,1.77-4.3,2.66-7.06,2.66-2.44,0-4.54-.6-6.27-1.79-1.73-1.19-3.15-3.1-4.25-5.74-1.09-2.64-1.64-5.74-1.64-9.31s.55-6.53,1.64-8.99c1.11-2.45,2.61-4.3,4.49-5.54s4-1.89,6.32-1.89c2.54,0,4.72,.79,6.55,2.38,1.83,1.57,3.1,3.9,3.84,6.96l-3.42,.99c-1.18-4.47-3.52-6.69-7.05-6.69-1.76,0-3.27,.45-4.56,1.35-1.29,.91-2.31,2.3-3.09,4.21-.77,1.9-1.15,4.3-1.15,7.22,0,4.39,.78,7.7,2.32,9.89s3.61,3.3,6.18,3.3c1.9,0,3.54-.68,4.92-2.03s2.31-3.4,2.78-6.15Z"/><path class="cls-7" d="M808.74,682.91l10.16-32.12h3.73l10.79,32.12h-4l-3.06-9.72h-11.09l-2.86,9.72h-3.67Zm7.56-13.2h8.97l-2.74-8.89c-.85-2.74-1.47-4.96-1.86-6.66-.34,2.06-.82,4.1-1.45,6.14l-2.93,9.41Z"/><path class="cls-7" d="M836.05,682.91v-32.12h3.57l13.85,25.27v-25.27h3.33v32.12h-3.57l-13.82-25.27v25.27h-3.36Z"/><path class="cls-7" d="M859.84,682.91l10.16-32.12h3.73l10.79,32.12h-4l-3.06-9.72h-11.09l-2.86,9.72h-3.67Zm7.56-13.2h8.97l-2.74-8.89c-.85-2.74-1.47-4.96-1.86-6.66-.34,2.06-.82,4.1-1.45,6.14l-2.93,9.41Z"/><path class="cls-7" d="M887.18,682.91v-32.12h9.09c2.25,0,3.97,.2,5.13,.58,1.53,.51,2.86,1.45,3.98,2.81,1.13,1.36,2.01,3.08,2.64,5.15,.62,2.07,.94,4.52,.94,7.34,0,3.64-.52,6.73-1.59,9.27-1.08,2.52-2.44,4.32-4.11,5.39-1.67,1.06-3.87,1.59-6.56,1.59h-9.51Zm3.49-3.78h5.6c2.27,0,3.98-.37,5.16-1.12,1.16-.74,2.06-1.91,2.69-3.56,.84-2.17,1.25-4.78,1.25-7.82,0-3.25-.44-5.81-1.33-7.67-.88-1.87-2.01-3.12-3.4-3.74-.94-.43-2.42-.64-4.45-.64h-5.51v24.55Z"/><path class="cls-7" d="M910.94,682.91l10.16-32.12h3.73l10.79,32.12h-4l-3.06-9.72h-11.09l-2.86,9.72h-3.67Zm7.56-13.2h8.97l-2.74-8.89c-.85-2.74-1.47-4.96-1.86-6.66-.34,2.06-.82,4.1-1.45,6.14l-2.93,9.41Z"/></g><path class="cls-2" d="M366.71,288.1c0-8.21,6.72-14.93,14.93-14.93h2.57c8.21,0,14.93,6.72,14.93,14.93v113.17l14.22,14.22v-130.22c0-6.65,5.44-12.09,12.1-12.09h2.08c6.65,0,12.1,5.44,12.1,12.09v156.5l20.22,20.22v-178.95c0-5.43,4.44-9.87,9.87-9.87h1.7c5.43,0,9.87,4.44,9.87,9.87v172.95l27.79-27.79v-147.83c0-3.96,3.24-7.2,7.2-7.2h1.24c3.96,0,7.2,3.24,7.2,7.2v132.19l24.86-24.86v-108.08c0-3.55,2.9-6.45,6.46-6.45h1.11c3.55,0,6.45,2.9,6.45,6.45v94.06l138.83-138.83L467.57,0,232.72,234.85l133.99,133.99v-80.74Zm-60.78-73.03c0-6.34,5.18-11.52,11.52-11.52h295.54c6.34,0,11.52,5.18,11.52,11.52s-5.18,11.52-11.52,11.52H317.46c-6.34,0-11.52-5.18-11.52-11.52Zm32.54,38.74c0-5.1,4.18-9.28,9.28-9.28h239.64c5.1,0,9.28,4.17,9.28,9.28s-4.18,9.28-9.28,9.28h-239.64c-5.1,0-9.28-4.18-9.28-9.28Z"/><g><polygon class="cls-5" points="896.6 306.42 757.9 445.12 762.66 445.12 901.36 306.42 896.6 306.42"/><polygon class="cls-5" points="912.24 306.42 842.89 375.77 845.27 375.77 914.62 306.42 912.24 306.42"/><polygon class="cls-5" points="925.55 306.42 856.2 375.77 857.59 375.77 926.94 306.42 925.55 306.42"/></g><path class="cls-11" d="M696.98,380.22h-99.25v-16.71l100.05-101.26h23.52v95.43h22.11v22.55h-22.11v45.9h-24.31v-45.9Zm-66.3-22.55h66.3v-67"/><path class="cls-10" d="M741.75,404.22v18.81h34.07l25.5-25.5c-6.02,.29-17.76,.78-23.37,1.28,34.01-34.01,61.13-61.73,61.13-92.39s-20.21-47.6-51.65-47.6c-22.16,0-29.52,7.54-46.45,23.26l16.23,15.98c8.76-9.53,19.07-17.78,31.69-17.78,17.26,0,26.8,10.56,26.8,27.83,0,24.48-29.12,54.37-73.95,96.11Z"/><g id="ab57L9.tif"><path class="cls-4" d="M940.81,420.57q.45,1.19,1.68,.94c.34-.07,.68-.13,1.07-.21-.03,.55-.24,1.03-.36,1.53-.27,1.06-.29,1.06,.71,1.62-.81,.66-1.6,1.31-2.38,1.96-.14,.11-.27,.23-.42,.32-.84,.51-1.36,1.13-.61,2.19-.99-.03-1.84-.22-2.7-.34-1.53-.2-1.3-.18-1.27,1.08,.01,.86,.03,1.72,.04,2.58,0,.19,.06,.39-.27,.39-.32,0-.34-.16-.32-.4,.06-1.05,.09-2.11,.15-3.16,.03-.47-.12-.65-.6-.57-1.08,.16-2.16,.3-3.23,.44-.03-.06-.07-.1-.07-.12,.51-.93,.14-1.51-.66-2.07-.99-.69-1.89-1.51-2.83-2.27,.03-.05,.04-.1,.06-.11q.9-.49,.62-1.48c-.14-.51-.27-1.01-.43-1.6,.61,.12,1.16,.18,1.69,.35,.57,.18,.85,.02,.93-.56,.02-.15,.09-.3,.17-.52,.54,.6,1.04,1.17,1.54,1.72,.15,.17,.3,.43,.57,.29,.26-.13,.16-.4,.11-.63-.21-1.07-.41-2.15-.61-3.22-.02-.13-.09-.26,.03-.41,.08,.03,.17,.06,.26,.11,1.29,.69,1.11,.5,1.68-.53,.3-.54,.59-1.1,.93-1.75,.38,.71,.73,1.35,1.07,1.99,.46,.84,.48,.85,1.33,.4,.15-.08,.31-.15,.52-.26,.01,.64-.18,1.19-.26,1.75-.11,.67-.24,1.34-.37,2.02-.04,.2-.08,.41,.12,.53,.25,.14,.39-.07,.53-.23,.51-.56,1.01-1.13,1.57-1.76Z"/></g><text class="cls-6" transform="translate(837.65 406.09)"><tspan x="0" y="0">YEA</tspan><tspan class="cls-9" x="52.97" y="0">R</tspan><tspan class="cls-1" x="72.14" y="0">S</tspan></text><text class="cls-3" transform="translate(798.95 433.97)"><tspan x="0" y="0">OF SU</tspan><tspan class="cls-12" x="61.47" y="0">C</tspan><tspan class="cls-13" x="74.59" y="0">CE</tspan><tspan class="cls-8" x="101.18" y="0">S</tspan><tspan x="113.77" y="0">S</tspan></text></g></g></svg>