<?xml version="1.0" encoding="utf-8"?>
<!-- Generator: Adobe Illustrator 16.0.0, SVG Export Plug-In . SVG Version: 6.00 Build 0)  -->
<!DOCTYPE svg PUBLIC "-//W3C//DTD SVG 1.1//EN" "http://www.w3.org/Graphics/SVG/1.1/DTD/svg11.dtd">
<svg version="1.1" id="Layer_1" xmlns:sketch="http://www.bohemiancoding.com/sketch/ns"
	 xmlns="http://www.w3.org/2000/svg" xmlns:xlink="http://www.w3.org/1999/xlink" x="0px" y="0px" width="1447px" height="480px"
	 viewBox="0 0 1447 480" enable-background="new 0 0 1447 480" xml:space="preserve">
<title>schoolhouse</title>
<desc>Created with Sketch.</desc>
<g id="Page-1" sketch:type="MSPage">
	<g id="schoolhouse" sketch:type="MSLayerGroup">
		<path id="Shape" sketch:type="MSShapeGroup" fill="#E5E1CF" d="M1441.5,465h-201c-2.8,0-5.1-2.3-5.1-5.1V149.1
			c0-2.8,2.3-5.1,5.1-5.1h201c2.8,0,5.1,2.3,5.1,5.1V460C1446.5,462.8,1444.3,465,1441.5,465L1441.5,465z M1245.5,454.9h190.9V154.2
			h-190.9V454.9L1245.5,454.9z"/>
		<path id="Shape_1_" sketch:type="MSShapeGroup" fill="#E5E1CF" d="M1418.3,154.2c-2.8,0-5.1-2.3-5.1-5.1v-35.5h-144.4v35.5
			c0,2.8-2.3,5.1-5.1,5.1s-5.101-2.3-5.101-5.1v-40.5c0-2.8,2.301-5.1,5.101-5.1h154.6c2.8,0,5.101,2.3,5.101,5.1v40.5
			C1423.3,151.9,1421.1,154.2,1418.3,154.2L1418.3,154.2z"/>
		<path id="Shape_2_" sketch:type="MSShapeGroup" fill="#E5E1CF" d="M1365.7,270.4h-54.2c-1.8,0-3.5-1-4.4-2.5L1280,221
			c-0.9-1.6-0.9-3.5,0-5.1l27.1-46.9c0.9-1.6,2.601-2.5,4.4-2.5h54.2c1.8,0,3.5,1,4.399,2.5l27.101,46.9c0.899,1.6,0.899,3.5,0,5.1
			l-27.101,46.9C1369.2,269.4,1367.5,270.4,1365.7,270.4L1365.7,270.4z M1314.5,260.3h48.3l24.2-41.9l-24.2-41.9h-48.3l-24.2,41.9
			L1314.5,260.3L1314.5,260.3z"/>
		<path id="Shape_3_" sketch:type="MSShapeGroup" fill="#E5E1CF" d="M1338.6,270.4c-2.8,0-5.1-2.301-5.1-5.101v-93.9
			c0-2.8,2.3-5.1,5.1-5.1c2.801,0,5.101,2.3,5.101,5.1v93.9C1343.7,268.1,1341.4,270.4,1338.6,270.4L1338.6,270.4z"/>
		<path id="Shape_4_" sketch:type="MSShapeGroup" fill="#E5E1CF" d="M1392.8,223.5H1284.4c-2.801,0-5.101-2.3-5.101-5.1
			c0-2.8,2.3-5.1,5.101-5.1H1392.8c2.8,0,5.101,2.3,5.101,5.1C1397.9,221.2,1395.6,223.5,1392.8,223.5L1392.8,223.5z"/>
		<path id="Shape_5_" sketch:type="MSShapeGroup" fill="#E5E1CF" d="M1380.5,202.1h-83.7c-2.8,0-5.1-2.3-5.1-5.1s2.3-5.1,5.1-5.1
			h83.7c2.8,0,5.1,2.3,5.1,5.1C1385.5,199.8,1383.3,202.1,1380.5,202.1L1380.5,202.1z"/>
		<path id="Shape_6_" sketch:type="MSShapeGroup" fill="#E5E1CF" d="M1380.5,243.2h-83.7c-2.8,0-5.1-2.3-5.1-5.1s2.3-5.1,5.1-5.1
			h83.7c2.8,0,5.1,2.3,5.1,5.1S1383.3,243.2,1380.5,243.2L1380.5,243.2z"/>
		<path id="Shape_7_" sketch:type="MSShapeGroup" fill="#E5E1CF" d="M1418.5,405.3h-152.6c-2.801,0-5.101-2.3-5.101-5.1v-71
			c0-2.8,2.3-5.101,5.101-5.101h152.6c2.8,0,5.1,2.301,5.1,5.101v71C1423.5,403.1,1421.3,405.3,1418.5,405.3L1418.5,405.3z
			 M1270.9,395.2h142.5v-60.8h-142.5V395.2L1270.9,395.2z"/>
		<path id="Shape_8_" sketch:type="MSShapeGroup" fill="#E5E1CF" d="M1418.5,369.9h-152.6c-2.801,0-5.101-2.301-5.101-5.101
			s2.3-5.1,5.101-5.1h152.6c2.8,0,5.1,2.3,5.1,5.1C1423.5,367.6,1421.3,369.9,1418.5,369.9L1418.5,369.9z"/>
		<path id="Shape_9_" sketch:type="MSShapeGroup" fill="#E5E1CF" d="M1379,405.3c-2.8,0-5.1-2.3-5.1-5.1v-71
			c0-2.8,2.3-5.101,5.1-5.101s5.1,2.301,5.1,5.101v71C1384.1,403.1,1381.8,405.3,1379,405.3L1379,405.3z"/>
		<path id="Shape_10_" sketch:type="MSShapeGroup" fill="#E5E1CF" d="M1305.3,405.3c-2.8,0-5.1-2.3-5.1-5.1v-71
			c0-2.8,2.3-5.101,5.1-5.101s5.101,2.301,5.101,5.101v71C1310.3,403.1,1308.1,405.3,1305.3,405.3L1305.3,405.3z"/>
		<path id="Shape_11_" sketch:type="MSShapeGroup" fill="#E5E1CF" d="M1342.2,405.3c-2.8,0-5.101-2.3-5.101-5.1v-71
			c0-2.8,2.301-5.101,5.101-5.101s5.1,2.301,5.1,5.101v71C1347.2,403.1,1345,405.3,1342.2,405.3L1342.2,405.3z"/>
		<path id="Shape_12_" sketch:type="MSShapeGroup" fill="#E5E1CF" d="M1240.5,465h-201c-2.8,0-5.1-2.3-5.1-5.1V149.1
			c0-2.8,2.3-5.1,5.1-5.1h201c2.8,0,5.1,2.3,5.1,5.1V460C1245.5,462.8,1243.3,465,1240.5,465L1240.5,465z M1044.5,454.9h190.9V154.2
			h-190.9V454.9L1044.5,454.9z"/>
		<path id="Shape_13_" sketch:type="MSShapeGroup" fill="#E5E1CF" d="M1217.2,154.2c-2.8,0-5.101-2.3-5.101-5.1v-35.5H1067.7v35.5
			c0,2.8-2.3,5.1-5.101,5.1c-2.8,0-5.1-2.3-5.1-5.1v-40.5c0-2.8,2.3-5.1,5.1-5.1H1217.2c2.8,0,5.1,2.3,5.1,5.1v40.5
			C1222.3,151.9,1220,154.2,1217.2,154.2L1217.2,154.2z"/>
		<path id="Shape_14_" sketch:type="MSShapeGroup" fill="#E5E1CF" d="M1164.7,270.4h-54.2c-1.8,0-3.5-1-4.4-2.5L1079,221
			c-0.9-1.6-0.9-3.5,0-5.1l27.1-46.9c0.9-1.6,2.601-2.5,4.4-2.5h54.2c1.8,0,3.5,1,4.399,2.5l27.101,46.9c0.899,1.6,0.899,3.5,0,5.1
			l-27.101,46.9C1168.2,269.4,1166.5,270.4,1164.7,270.4L1164.7,270.4z M1113.4,260.3h48.3l24.2-41.9l-24.2-41.9h-48.3l-24.2,41.9
			L1113.4,260.3L1113.4,260.3z"/>
		<path id="Shape_15_" sketch:type="MSShapeGroup" fill="#E5E1CF" d="M1137.6,270.4c-2.8,0-5.1-2.301-5.1-5.101v-93.9
			c0-2.8,2.3-5.1,5.1-5.1c2.801,0,5.101,2.3,5.101,5.1v93.9C1142.7,268.1,1140.4,270.4,1137.6,270.4L1137.6,270.4z"/>
		<path id="Shape_16_" sketch:type="MSShapeGroup" fill="#E5E1CF" d="M1191.8,223.5H1083.4c-2.801,0-5.101-2.3-5.101-5.1
			c0-2.8,2.3-5.1,5.101-5.1H1191.8c2.8,0,5.101,2.3,5.101,5.1C1196.9,221.2,1194.6,223.5,1191.8,223.5L1191.8,223.5z"/>
		<path id="Shape_17_" sketch:type="MSShapeGroup" fill="#E5E1CF" d="M1179.5,202.1h-83.7c-2.8,0-5.1-2.3-5.1-5.1s2.3-5.1,5.1-5.1
			h83.7c2.8,0,5.1,2.3,5.1,5.1C1184.5,199.8,1182.3,202.1,1179.5,202.1L1179.5,202.1z"/>
		<path id="Shape_18_" sketch:type="MSShapeGroup" fill="#E5E1CF" d="M1179.5,243.2h-83.7c-2.8,0-5.1-2.3-5.1-5.1s2.3-5.1,5.1-5.1
			h83.7c2.8,0,5.1,2.3,5.1,5.1S1182.3,243.2,1179.5,243.2L1179.5,243.2z"/>
		<path id="Shape_19_" sketch:type="MSShapeGroup" fill="#E5E1CF" d="M1217.4,405.3H1064.8c-2.8,0-5.1-2.3-5.1-5.1v-71
			c0-2.8,2.3-5.101,5.1-5.101H1217.4c2.8,0,5.1,2.301,5.1,5.101v71C1222.5,403.1,1220.2,405.3,1217.4,405.3L1217.4,405.3z
			 M1069.9,395.2h142.5v-60.8h-142.5V395.2L1069.9,395.2z"/>
		<path id="Shape_20_" sketch:type="MSShapeGroup" fill="#E5E1CF" d="M1217.4,369.9H1064.8c-2.8,0-5.1-2.301-5.1-5.101
			s2.3-5.1,5.1-5.1H1217.4c2.8,0,5.1,2.3,5.1,5.1S1220.2,369.9,1217.4,369.9L1217.4,369.9z"/>
		<path id="Shape_21_" sketch:type="MSShapeGroup" fill="#E5E1CF" d="M1178,405.3c-2.8,0-5.1-2.3-5.1-5.1v-71
			c0-2.8,2.3-5.101,5.1-5.101s5.1,2.301,5.1,5.101v71C1183.1,403.1,1180.8,405.3,1178,405.3L1178,405.3z"/>
		<path id="Shape_22_" sketch:type="MSShapeGroup" fill="#E5E1CF" d="M1104.3,405.3c-2.8,0-5.1-2.3-5.1-5.1v-71
			c0-2.8,2.3-5.101,5.1-5.101s5.101,2.301,5.101,5.101v71C1109.3,403.1,1107.1,405.3,1104.3,405.3L1104.3,405.3z"/>
		<path id="Shape_23_" sketch:type="MSShapeGroup" fill="#E5E1CF" d="M1141.1,405.3c-2.8,0-5.1-2.3-5.1-5.1v-71
			c0-2.8,2.3-5.101,5.1-5.101c2.801,0,5.101,2.301,5.101,5.101v71C1146.2,403.1,1143.9,405.3,1141.1,405.3L1141.1,405.3z"/>
		<path id="Shape_24_" sketch:type="MSShapeGroup" fill="#E5E1CF" d="M994.4,465c-2.801,0-5.101-2.3-5.101-5.1V10.6h-532V460
			c0,2.8-2.3,5.1-5.1,5.1s-5.101-2.3-5.101-5.1V5.5c0-2.8,2.301-5.1,5.101-5.1h542.3c2.8,0,5.1,2.3,5.1,5.1V460
			C999.5,462.8,997.2,465,994.4,465L994.4,465z"/>
		<path id="Shape_25_" sketch:type="MSShapeGroup" fill="#E5E1CF" d="M960.7,133.9H494.4c-2.801,0-5.101-2.3-5.101-5.1V73.1
			c0-2.8,2.3-5.1,5.101-5.1H960.6c2.801,0,5.101,2.3,5.101,5.1v55.7C965.7,131.6,963.5,133.9,960.7,133.9L960.7,133.9z M499.5,123.8
			h456.1V78.2H499.5V123.8L499.5,123.8z"/>
		<path id="Shape_26_" sketch:type="MSShapeGroup" fill="#E5E1CF" d="M928.6,354.4H526.5c-2.8,0-5.1-2.301-5.1-5.101V154.2H511.3
			c-2.8,0-5.1-2.3-5.1-5.1v-20.3c0-2.8,2.3-5.1,5.1-5.1s5.101,2.3,5.101,5.1V144h10.1c2.8,0,5.1,2.3,5.1,5.1v195.1h391.9V149.1
			c0-2.8,2.3-5.1,5.1-5.1H938.7v-15.2c0-2.8,2.3-5.1,5.1-5.1s5.101,2.3,5.101,5.1v20.3c0,2.8-2.301,5.1-5.101,5.1h-10.1v195.1
			C933.6,352.1,931.4,354.4,928.6,354.4L928.6,354.4z"/>
		<path id="Shape_27_" sketch:type="MSShapeGroup" fill="#E5E1CF" d="M866.1,154.2c-2.8,0-5.1-2.3-5.1-5.1v-20.3
			c0-2.8,2.3-5.1,5.1-5.1c2.801,0,5.101,2.3,5.101,5.1v20.3C871.1,151.9,868.9,154.2,866.1,154.2L866.1,154.2z"/>
		<path id="Shape_28_" sketch:type="MSShapeGroup" fill="#E5E1CF" d="M881.3,154.2h-15.2c-2.8,0-5.1-2.3-5.1-5.1
			c0-2.8,2.3-5.1,5.1-5.1h15.2c2.8,0,5.101,2.3,5.101,5.1C886.3,151.9,884.1,154.2,881.3,154.2L881.3,154.2z"/>
		<path id="Shape_29_" sketch:type="MSShapeGroup" fill="#E5E1CF" d="M881.3,354.4c-2.8,0-5.1-2.301-5.1-5.101V149.1
			c0-2.8,2.3-5.1,5.1-5.1s5.101,2.3,5.101,5.1v200.2C886.3,352.1,884.1,354.4,881.3,354.4L881.3,354.4z"/>
		<path id="Shape_30_" sketch:type="MSShapeGroup" fill="#E5E1CF" d="M590.7,154.2c-2.8,0-5.101-2.3-5.101-5.1v-20.3
			c0-2.8,2.301-5.1,5.101-5.1s5.1,2.3,5.1,5.1v20.3C595.8,151.9,593.5,154.2,590.7,154.2L590.7,154.2z"/>
		<path id="Shape_31_" sketch:type="MSShapeGroup" fill="#E5E1CF" d="M590.7,154.2h-15.2c-2.8,0-5.1-2.3-5.1-5.1
			c0-2.8,2.3-5.1,5.1-5.1h15.2c2.8,0,5.1,2.3,5.1,5.1C595.8,151.9,593.5,154.2,590.7,154.2L590.7,154.2z"/>
		<path id="Shape_32_" sketch:type="MSShapeGroup" fill="#E5E1CF" d="M575.5,354.4c-2.8,0-5.1-2.301-5.1-5.101V149.1
			c0-2.8,2.3-5.1,5.1-5.1s5.1,2.3,5.1,5.1v200.2C580.6,352.1,578.3,354.4,575.5,354.4L575.5,354.4z"/>
		<path id="Shape_33_" sketch:type="MSShapeGroup" fill="#E5E1CF" d="M943.8,385.6H511.3c-2.8,0-5.1-2.3-5.1-5.1v-31.3
			c0-2.8,2.3-5.101,5.1-5.101h432.5c2.8,0,5.101,2.301,5.101,5.101v31.3C948.8,383.4,946.6,385.6,943.8,385.6L943.8,385.6z
			 M516.4,375.5h422.3v-21.1H516.4V375.5L516.4,375.5z"/>
		<path id="Shape_34_" sketch:type="MSShapeGroup" fill="#E5E1CF" d="M960.7,416.9H494.4c-2.801,0-5.101-2.301-5.101-5.101v-31.3
			c0-2.8,2.3-5.1,5.101-5.1H960.6c2.801,0,5.101,2.3,5.101,5.1v31.3C965.7,414.6,963.5,416.9,960.7,416.9L960.7,416.9z M499.5,406.7
			h456.1V385.6H499.5V406.7L499.5,406.7z"/>
		<path id="Shape_35_" sketch:type="MSShapeGroup" fill="#E5E1CF" d="M977.6,448.1h-508c-2.8,0-5.1-2.3-5.1-5.1v-31.3
			c0-2.8,2.3-5.101,5.1-5.101h507.9c2.8,0,5.1,2.301,5.1,5.101V443C982.6,445.9,980.4,448.1,977.6,448.1L977.6,448.1z M474.7,438
			h497.8v-21.1H474.7V438L474.7,438z"/>
		<path id="Shape_36_" sketch:type="MSShapeGroup" fill="#E5E1CF" d="M994.4,479.4H452.2c-2.8,0-5.101-2.301-5.101-5.101V443
			c0-2.8,2.301-5.1,5.101-5.1h542.3c2.8,0,5.1,2.3,5.1,5.1v31.3C999.5,477.1,997.2,479.4,994.4,479.4L994.4,479.4z M457.3,469.2
			H989.4V448.1H457.3V469.2L457.3,469.2z"/>
		<path id="Shape_37_" sketch:type="MSShapeGroup" fill="#E5E1CF" d="M960.7,416.9c-2.8,0-5.101-2.301-5.101-5.101v-31.3
			c0-2.8,2.301-5.1,5.101-5.1s5.1,2.3,5.1,5.1v31.3C965.7,414.6,963.5,416.9,960.7,416.9L960.7,416.9z"/>
		<path id="Shape_38_" sketch:type="MSShapeGroup" fill="#E5E1CF" d="M1039.4,465h-45c-2.801,0-5.101-2.3-5.101-5.1v-331
			c0-2.8,2.3-5.1,5.101-5.1h68.199c2.801,0,5.101,2.3,5.101,5.1v20.3c0,2.8-2.3,5.1-5.101,5.1c-2.8,0-5.1-2.3-5.1-5.1V134h-58.1v321
			h39.899c2.8,0,5.101,2.3,5.101,5.1C1044.5,462.8,1042.2,465,1039.4,465L1039.4,465z"/>
		<path id="Shape_39_" sketch:type="MSShapeGroup" fill="#E5E1CF" d="M206.2,465H5.2c-2.8,0-5.1-2.3-5.1-5.1V149.1
			c0-2.8,2.3-5.1,5.1-5.1h201c2.8,0,5.1,2.3,5.1,5.1V460C211.3,462.8,209,465,206.2,465L206.2,465z M10.2,454.9h190.9V154.2H10.2
			V454.9L10.2,454.9z"/>
		<path id="Shape_40_" sketch:type="MSShapeGroup" fill="#E5E1CF" d="M183,154.2c-2.8,0-5.1-2.3-5.1-5.1v-35.5H33.5v35.5
			c0,2.8-2.3,5.1-5.1,5.1c-2.8,0-5.1-2.3-5.1-5.1v-40.5c0-2.8,2.3-5.1,5.1-5.1H183c2.8,0,5.1,2.3,5.1,5.1v40.5
			C188,151.9,185.8,154.2,183,154.2L183,154.2z"/>
		<path id="Shape_41_" sketch:type="MSShapeGroup" fill="#E5E1CF" d="M135.1,270.4H80.9c-1.8,0-3.5-1-4.4-2.5L49.4,221
			c-0.9-1.6-0.9-3.5,0-5.1L76.5,169c0.9-1.6,2.6-2.5,4.4-2.5h54.2c1.8,0,3.5,1,4.4,2.5l27.1,46.9c0.9,1.6,0.9,3.5,0,5.1l-27.1,46.9
			C138.6,269.4,136.9,270.4,135.1,270.4L135.1,270.4z M83.8,260.3h48.3l24.2-41.9l-24.2-41.9H83.8l-24.2,41.9L83.8,260.3L83.8,260.3
			z"/>
		<path id="Shape_42_" sketch:type="MSShapeGroup" fill="#E5E1CF" d="M108,270.4c-2.8,0-5.1-2.301-5.1-5.101v-93.9
			c0-2.8,2.3-5.1,5.1-5.1s5.1,2.3,5.1,5.1v93.9C113.1,268.1,110.8,270.4,108,270.4L108,270.4z"/>
		<path id="Shape_43_" sketch:type="MSShapeGroup" fill="#E5E1CF" d="M162.2,223.5H53.8c-2.8,0-5.1-2.3-5.1-5.1
			c0-2.8,2.3-5.1,5.1-5.1h108.4c2.8,0,5.1,2.3,5.1,5.1C167.3,221.2,165,223.5,162.2,223.5L162.2,223.5z"/>
		<path id="Shape_44_" sketch:type="MSShapeGroup" fill="#E5E1CF" d="M149.9,202.1H66.2c-2.8,0-5.1-2.3-5.1-5.1s2.3-5.1,5.1-5.1
			h83.7c2.8,0,5.1,2.3,5.1,5.1C154.9,199.8,152.7,202.1,149.9,202.1L149.9,202.1z"/>
		<path id="Shape_45_" sketch:type="MSShapeGroup" fill="#E5E1CF" d="M149.9,243.2H66.2c-2.8,0-5.1-2.3-5.1-5.1s2.3-5.1,5.1-5.1
			h83.7c2.8,0,5.1,2.3,5.1,5.1S152.7,243.2,149.9,243.2L149.9,243.2z"/>
		<path id="Shape_46_" sketch:type="MSShapeGroup" fill="#E5E1CF" d="M180.8,405.3H28.2c-2.8,0-5.1-2.3-5.1-5.1v-71
			c0-2.8,2.3-5.101,5.1-5.101h152.6c2.8,0,5.1,2.301,5.1,5.101v71C185.8,403.1,183.6,405.3,180.8,405.3L180.8,405.3z M33.2,395.2
			h142.5v-60.8H33.2V395.2L33.2,395.2z"/>
		<path id="Shape_47_" sketch:type="MSShapeGroup" fill="#E5E1CF" d="M180.8,369.9H28.2c-2.8,0-5.1-2.301-5.1-5.101s2.3-5.1,5.1-5.1
			h152.6c2.8,0,5.1,2.3,5.1,5.1C185.8,367.6,183.6,369.9,180.8,369.9L180.8,369.9z"/>
		<path id="Shape_48_" sketch:type="MSShapeGroup" fill="#E5E1CF" d="M67.6,405.3c-2.8,0-5.1-2.3-5.1-5.1v-71
			c0-2.8,2.3-5.101,5.1-5.101c2.8,0,5.1,2.301,5.1,5.101v71C72.7,403.1,70.4,405.3,67.6,405.3L67.6,405.3z"/>
		<path id="Shape_49_" sketch:type="MSShapeGroup" fill="#E5E1CF" d="M141.4,405.3c-2.8,0-5.1-2.3-5.1-5.1v-71
			c0-2.8,2.3-5.101,5.1-5.101c2.8,0,5.1,2.301,5.1,5.101v71C146.4,403.1,144.2,405.3,141.4,405.3L141.4,405.3z"/>
		<path id="Shape_50_" sketch:type="MSShapeGroup" fill="#E5E1CF" d="M104.5,405.3c-2.8,0-5.1-2.3-5.1-5.1v-71
			c0-2.8,2.3-5.101,5.1-5.101s5.1,2.301,5.1,5.101v71C109.5,403.1,107.3,405.3,104.5,405.3L104.5,405.3z"/>
		<path id="Shape_51_" sketch:type="MSShapeGroup" fill="#E5E1CF" d="M407.2,465h-201c-2.8,0-5.1-2.3-5.1-5.1V149.1
			c0-2.8,2.3-5.1,5.1-5.1h201c2.8,0,5.1,2.3,5.1,5.1V460C412.3,462.8,410,465,407.2,465L407.2,465z M211.3,454.9h190.9V154.2H211.3
			V454.9L211.3,454.9z"/>
		<path id="Shape_52_" sketch:type="MSShapeGroup" fill="#E5E1CF" d="M384,154.2c-2.8,0-5.1-2.3-5.1-5.1v-35.5H234.5v35.5
			c0,2.8-2.3,5.1-5.1,5.1c-2.8,0-5.1-2.3-5.1-5.1v-40.5c0-2.8,2.3-5.1,5.1-5.1H384c2.8,0,5.1,2.3,5.1,5.1v40.5
			C389,151.9,386.8,154.2,384,154.2L384,154.2z"/>
		<path id="Shape_53_" sketch:type="MSShapeGroup" fill="#E5E1CF" d="M336.1,270.4h-54.2c-1.8,0-3.5-1-4.4-2.5L250.4,221
			c-0.9-1.6-0.9-3.5,0-5.1l27.1-46.9c0.9-1.6,2.6-2.5,4.4-2.5h54.2c1.801,0,3.5,1,4.4,2.5l27.1,46.9c0.9,1.6,0.9,3.5,0,5.1
			l-27.1,46.9C339.6,269.4,337.9,270.4,336.1,270.4L336.1,270.4z M284.9,260.3h48.3l24.2-41.9l-24.2-41.9h-48.3l-24.2,41.9
			L284.9,260.3L284.9,260.3z"/>
		<path id="Shape_54_" sketch:type="MSShapeGroup" fill="#E5E1CF" d="M309,270.4c-2.8,0-5.1-2.301-5.1-5.101v-93.9
			c0-2.8,2.3-5.1,5.1-5.1s5.1,2.3,5.1,5.1v93.9C314.1,268.1,311.8,270.4,309,270.4L309,270.4z"/>
		<path id="Shape_55_" sketch:type="MSShapeGroup" fill="#E5E1CF" d="M363.2,223.5H254.8c-2.8,0-5.1-2.3-5.1-5.1
			c0-2.8,2.3-5.1,5.1-5.1h108.4c2.8,0,5.1,2.3,5.1,5.1C368.3,221.2,366,223.5,363.2,223.5L363.2,223.5z"/>
		<path id="Shape_56_" sketch:type="MSShapeGroup" fill="#E5E1CF" d="M350.9,202.1h-83.7c-2.8,0-5.1-2.3-5.1-5.1s2.3-5.1,5.1-5.1
			h83.7c2.8,0,5.1,2.3,5.1,5.1C355.9,199.8,353.7,202.1,350.9,202.1L350.9,202.1z"/>
		<path id="Shape_57_" sketch:type="MSShapeGroup" fill="#E5E1CF" d="M350.9,243.2h-83.7c-2.8,0-5.1-2.3-5.1-5.1s2.3-5.1,5.1-5.1
			h83.7c2.8,0,5.1,2.3,5.1,5.1S353.7,243.2,350.9,243.2L350.9,243.2z"/>
		<path id="Shape_58_" sketch:type="MSShapeGroup" fill="#E5E1CF" d="M381.8,405.3H229.2c-2.8,0-5.1-2.3-5.1-5.1v-71
			c0-2.8,2.3-5.101,5.1-5.101h152.6c2.8,0,5.101,2.301,5.101,5.101v71C386.9,403.1,384.6,405.3,381.8,405.3L381.8,405.3z
			 M234.3,395.2h142.5v-60.8H234.3V395.2L234.3,395.2z"/>
		<path id="Shape_59_" sketch:type="MSShapeGroup" fill="#E5E1CF" d="M381.8,369.9H229.2c-2.8,0-5.1-2.301-5.1-5.101
			s2.3-5.1,5.1-5.1h152.6c2.8,0,5.101,2.3,5.101,5.1S384.6,369.9,381.8,369.9L381.8,369.9z"/>
		<path id="Shape_60_" sketch:type="MSShapeGroup" fill="#E5E1CF" d="M268.6,405.3c-2.8,0-5.1-2.3-5.1-5.1v-71
			c0-2.8,2.3-5.101,5.1-5.101c2.8,0,5.1,2.301,5.1,5.101v71C273.7,403.1,271.4,405.3,268.6,405.3L268.6,405.3z"/>
		<path id="Shape_61_" sketch:type="MSShapeGroup" fill="#E5E1CF" d="M342.4,405.3c-2.801,0-5.101-2.3-5.101-5.1v-71
			c0-2.8,2.3-5.101,5.101-5.101c2.8,0,5.1,2.301,5.1,5.101v71C347.5,403.1,345.2,405.3,342.4,405.3L342.4,405.3z"/>
		<path id="Shape_62_" sketch:type="MSShapeGroup" fill="#E5E1CF" d="M305.5,405.3c-2.8,0-5.1-2.3-5.1-5.1v-71
			c0-2.8,2.3-5.101,5.1-5.101s5.1,2.301,5.1,5.101v71C310.6,403.1,308.3,405.3,305.5,405.3L305.5,405.3z"/>
		<path id="Shape_63_" sketch:type="MSShapeGroup" fill="#E5E1CF" d="M452.2,465h-45c-2.8,0-5.101-2.3-5.101-5.1
			c0-2.801,2.301-5.101,5.101-5.101H447.1v-321H389V149c0,2.8-2.3,5.1-5.1,5.1c-2.801,0-5.101-2.3-5.101-5.1v-20.3
			c0-2.8,2.3-5.1,5.101-5.1H452.1c2.801,0,5.101,2.3,5.101,5.1V460C457.3,462.8,455,465,452.2,465L452.2,465z"/>
		<path id="Shape_64_" sketch:type="MSShapeGroup" fill="#E5E1CF" d="M783.6,353H673.4c-1.801,0-3.5-1-4.4-2.5l-55-95.4
			c-0.9-1.6-0.9-3.5,0-5.1l55.1-95.4c0.9-1.6,2.601-2.5,4.4-2.5h110.1c1.801,0,3.5,1,4.4,2.5l55.1,95.4c0.9,1.6,0.9,3.5,0,5.1
			L788,350.5C787,352.1,785.4,353,783.6,353L783.6,353z M676.4,342.9h104.3l52.1-90.301l-52.1-90.3H676.4L624.3,252.6L676.4,342.9
			L676.4,342.9z"/>
		<path id="Shape_65_" sketch:type="MSShapeGroup" fill="#E5E1CF" d="M685.9,353c-2.801,0-5.101-2.3-5.101-5.1V157.2
			c0-2.8,2.3-5.1,5.101-5.1c2.8,0,5.1,2.3,5.1,5.1V348C690.9,350.8,688.7,353,685.9,353L685.9,353z"/>
		<path id="Shape_66_" sketch:type="MSShapeGroup" fill="#E5E1CF" d="M770.3,353c-2.8,0-5.1-2.3-5.1-5.1V157.2
			c0-2.8,2.3-5.1,5.1-5.1s5.101,2.3,5.101,5.1V348C775.4,350.8,773.1,353,770.3,353L770.3,353z"/>
		<path id="Shape_67_" sketch:type="MSShapeGroup" fill="#E5E1CF" d="M685.9,257.7h-67.5c-2.801,0-5.101-2.3-5.101-5.101
			c0-2.8,2.3-5.1,5.101-5.1h67.5c2.8,0,5.1,2.3,5.1,5.1C690.9,255.4,688.7,257.7,685.9,257.7L685.9,257.7z"/>
		<path id="Shape_68_" sketch:type="MSShapeGroup" fill="#E5E1CF" d="M838.6,257.7h-68.3c-2.8,0-5.1-2.3-5.1-5.101
			c0-2.8,2.3-5.1,5.1-5.1h68.3c2.801,0,5.101,2.3,5.101,5.1C843.7,255.4,841.4,257.7,838.6,257.7L838.6,257.7z"/>
		<path id="Shape_69_" sketch:type="MSShapeGroup" fill="#E5E1CF" d="M685.9,214.2h-42.4c-2.8,0-5.1-2.3-5.1-5.1
			c0-2.8,2.3-5.1,5.1-5.1h42.4c2.8,0,5.1,2.3,5.1,5.1C691,211.9,688.7,214.2,685.9,214.2L685.9,214.2z"/>
		<path id="Shape_70_" sketch:type="MSShapeGroup" fill="#E5E1CF" d="M813.5,214.2h-40.9c-2.8,0-5.1-2.3-5.1-5.1
			c0-2.8,2.3-5.1,5.1-5.1h40.9c2.8,0,5.1,2.3,5.1,5.1C818.6,211.9,816.3,214.2,813.5,214.2L813.5,214.2z"/>
		<path id="Shape_71_" sketch:type="MSShapeGroup" fill="#E5E1CF" d="M685.9,297.7h-42.4c-2.8,0-5.1-2.3-5.1-5.101
			c0-2.8,2.3-5.1,5.1-5.1h42.4c2.8,0,5.1,2.3,5.1,5.1C690.9,295.4,688.7,297.7,685.9,297.7L685.9,297.7z"/>
		<path id="Shape_72_" sketch:type="MSShapeGroup" fill="#E5E1CF" d="M813.5,297.7h-43.2c-2.8,0-5.1-2.3-5.1-5.101
			c0-2.8,2.3-5.1,5.1-5.1h43.2c2.8,0,5.1,2.3,5.1,5.1C818.6,295.4,816.3,297.7,813.5,297.7L813.5,297.7z"/>
		<path id="Shape_73_" sketch:type="MSShapeGroup" fill="#E5E1CF" d="M729.5,273c-6.2,0-11.3-5.1-11.3-11.3s5.1-11.3,11.3-11.3
			s11.3,5.1,11.3,11.3S735.7,273,729.5,273L729.5,273z M729.5,260.6c-0.6,0-1.1,0.5-1.1,1.101c0,0.6,0.5,1.1,1.1,1.1
			s1.1-0.5,1.1-1.1C730.6,261.1,730.1,260.6,729.5,260.6L729.5,260.6z"/>
		<path id="Shape_74_" sketch:type="MSShapeGroup" fill="#E5E1CF" d="M579.8,28.6c0-1.7,1.4-3.1,3.101-3.1h0.6
			c1.5,0,2.4,0.7,3.2,1.8l12,15.8V28.4c0-1.7,1.399-3.1,3.1-3.1s3.101,1.4,3.101,3.1V51c0,1.7-1.4,3.1-3.101,3.1h-0.2
			c-1.5,0-2.399-0.7-3.199-1.8l-12.5-16.4v15.2c0,1.7-1.4,3.1-3.101,3.1s-3.1-1.4-3.1-3.1V28.6H579.8z M610.5,39.9
			c0-8.1,6.4-14.7,15.1-14.7c8.801,0,15,6.5,15,14.6v0.1c0,8.1-6.399,14.7-15.1,14.7C616.8,54.4,610.5,47.9,610.5,39.9L610.5,39.9z
			 M634.2,39.9c0-4.9-3.601-9-8.601-9s-8.5,4-8.5,8.8v0.1c0,4.9,3.601,8.9,8.601,8.9S634.2,44.7,634.2,39.9L634.2,39.9z M646.2,28.7
			c0-1.7,1.399-3.1,3.1-3.1h7.9c8.899,0,15.1,6.1,15.1,14.1v0.1c0,8-6.2,14.2-15.1,14.2h-7.9c-1.7,0-3.1-1.4-3.1-3.1V28.7
			L646.2,28.7z M657.3,48.3c5.101,0,8.5-3.4,8.5-8.5v-0.1c0-5-3.399-8.6-8.5-8.6h-4.8v17.1h4.8V48.3z M677.9,50.8V28.7
			c0-1.7,1.399-3.1,3.1-3.1h15.7c1.5,0,2.8,1.3,2.8,2.8s-1.3,2.8-2.8,2.8H684.1V37H695c1.5,0,2.8,1.3,2.8,2.8s-1.3,2.8-2.8,2.8
			h-10.8v6H697c1.5,0,2.8,1.3,2.8,2.8s-1.3,2.8-2.8,2.8h-15.9C679.3,54,677.9,52.6,677.9,50.8L677.9,50.8z M704.5,51
			c-0.7-0.5-1.2-1.4-1.2-2.3c0-1.6,1.3-2.9,2.9-2.9c0.8,0,1.399,0.3,1.8,0.6c2.1,1.6,4.5,2.6,7.3,2.6c2.601,0,4.101-1,4.101-2.7
			v-0.1c0-1.6-1-2.4-5.7-3.6c-5.7-1.5-9.4-3-9.4-8.7v-0.1c0-5.1,4.101-8.6,9.9-8.6c3.399,0,6.399,0.9,9,2.5
			c0.7,0.4,1.399,1.3,1.399,2.5c0,1.6-1.3,2.9-2.899,2.9c-0.601,0-1.101-0.2-1.601-0.4c-2.1-1.2-4-1.9-6-1.9
			c-2.399,0-3.6,1.1-3.6,2.5v0.1c0,1.9,1.2,2.5,6.1,3.7c5.801,1.5,9,3.6,9,8.5v0.1c0,5.6-4.3,8.8-10.399,8.8
			C711.5,54.4,707.7,53.2,704.5,51L704.5,51z M729.8,39.9c0-8.1,6.101-14.7,14.8-14.7c4.301,0,7.101,1.1,9.5,2.9
			c0.601,0.5,1.2,1.4,1.2,2.5c0,1.7-1.399,3-3.1,3c-0.9,0-1.4-0.3-1.9-0.6c-1.7-1.3-3.6-2-5.8-2c-4.8,0-8.2,4-8.2,8.8v0.1
			c0,4.9,3.4,8.9,8.2,8.9c2.6,0,4.4-0.8,6.2-2.2c0.5-0.4,1.1-0.7,1.899-0.7c1.601,0,2.9,1.3,2.9,2.9c0,1-0.5,1.7-1.1,2.2
			c-2.601,2.2-5.601,3.6-10.101,3.6C736,54.4,729.8,48,729.8,39.9L729.8,39.9z M761,28.5c0-1.7,1.4-3.1,3.1-3.1
			c1.7,0,3.101,1.4,3.101,3.1v8.3h11.5v-8.3c0-1.7,1.399-3.1,3.1-3.1s3.101,1.4,3.101,3.1v22.6c0,1.7-1.4,3.1-3.101,3.1
			s-3.1-1.4-3.1-3.1v-8.5h-11.5v8.5c0,1.7-1.4,3.1-3.101,3.1c-1.699,0-3.1-1.4-3.1-3.1V28.5L761,28.5z M790.5,39.9
			c0-8.1,6.4-14.7,15.1-14.7c8.801,0,15,6.5,15,14.6v0.1c0,8.1-6.399,14.7-15.1,14.7C796.8,54.4,790.5,47.9,790.5,39.9L790.5,39.9z
			 M814.2,39.9c0-4.9-3.601-9-8.601-9s-8.5,4-8.5,8.8v0.1c0,4.9,3.601,8.9,8.601,8.9S814.2,44.7,814.2,39.9L814.2,39.9z M825,39.9
			c0-8.1,6.4-14.7,15.1-14.7c8.801,0,15,6.5,15,14.6v0.1c0,8.1-6.399,14.7-15.1,14.7C831.3,54.4,825,47.9,825,39.9L825,39.9z
			 M848.6,39.9c0-4.9-3.6-9-8.6-9s-8.5,4-8.5,8.8v0.1c0,4.9,3.6,8.9,8.6,8.9S848.6,44.7,848.6,39.9L848.6,39.9z M860.7,28.5
			c0-1.7,1.399-3.1,3.1-3.1s3.101,1.4,3.101,3.1v19.8h11.5c1.6,0,2.8,1.3,2.8,2.8s-1.3,2.8-2.8,2.8h-14.7
			c-1.7,0-3.101-1.4-3.101-3.1V28.5H860.7z"/>
		<path id="Shape_75_" sketch:type="MSShapeGroup" fill="#E5E1CF" d="M928,106H523.7c-2.8,0-5.101-2.3-5.101-5.1
			c0-2.8,2.301-5.1,5.101-5.1H928c2.8,0,5.1,2.3,5.1,5.1C933.1,103.7,930.8,106,928,106L928,106z"/>
		<path id="Shape_76_" sketch:type="MSShapeGroup" fill="#E5E1CF" d="M229.2,133.9H183c-2.8,0-5.1-2.3-5.1-5.1
			c0-2.8,2.3-5.1,5.1-5.1h46.2c2.8,0,5.1,2.3,5.1,5.1C234.3,131.6,232,133.9,229.2,133.9L229.2,133.9z"/>
		<path id="Shape_77_" sketch:type="MSShapeGroup" fill="#E5E1CF" d="M1263.6,133.9H1217.4c-2.801,0-5.101-2.3-5.101-5.1
			c0-2.8,2.3-5.1,5.101-5.1h46.199c2.801,0,5.101,2.3,5.101,5.1C1268.7,131.6,1266.4,133.9,1263.6,133.9L1263.6,133.9z"/>
	</g>
</g>
</svg>
